<?xml version="1.0" standalone="no"?>
<!DOCTYPE svg PUBLIC "-//W3C//DTD SVG 20010904//EN"
 "http://www.w3.org/TR/2001/REC-SVG-20010904/DTD/svg10.dtd">
<svg version="1.0" xmlns="http://www.w3.org/2000/svg"
 width="800.000000pt" height="800.000000pt" viewBox="0 0 800.000000 800.000000"
 preserveAspectRatio="xMidYMid meet">
<metadata>
Created by potrace 1.14, written by Peter Selinger 2001-2017
</metadata>
<g transform="translate(0.000000,800.000000) scale(0.100000,-0.100000)"
fill="#000000" stroke="none">
<path d="M3445 7990 c-43 -11 -256 -60 -281 -65 -16 -4 -19 -10 -16 -37 4 -33
3 -33 -62 -50 -64 -17 -211 -83 -221 -99 -3 -4 -1 -19 5 -33 8 -22 6 -28 -17
-43 -27 -18 -33 -20 -98 -28 -22 -3 -56 -7 -75 -10 -19 -2 -55 -7 -80 -10 -67
-9 -91 -15 -122 -32 -5 -2 -8 1 -8 7 0 6 10 15 23 21 17 7 8 8 -35 5 -63 -5
-124 -36 -192 -97 -22 -20 -59 -53 -81 -73 -45 -40 -107 -73 -147 -78 -15 -2
-35 -11 -45 -20 -27 -23 -59 -38 -84 -38 -14 0 -41 -19 -70 -49 l-48 -50 -25
20 c-34 27 -33 33 12 55 l37 18 -55 11 c-31 6 -63 7 -72 3 -16 -8 -16 -10 -1
-28 10 -11 23 -20 30 -20 18 0 16 -17 -2 -24 -8 -3 -15 -11 -15 -17 0 -12 38
-49 51 -49 4 0 0 -17 -9 -39 -15 -35 -19 -38 -40 -30 -19 7 -29 4 -52 -18 -40
-41 -65 -53 -94 -47 -14 2 -26 0 -26 -6 0 -6 -27 -50 -59 -97 -33 -48 -59 -90
-59 -93 3 -37 -4 -90 -12 -85 -14 9 -80 -44 -91 -73 l-9 -24 -35 21 c-19 11
-37 16 -40 11 -3 -5 -6 -42 -6 -83 l-1 -74 -46 -1 c-52 -2 -65 3 -75 32 -7 17
-21 15 -22 -2 -1 -16 -28 -88 -38 -99 -5 -7 -6 -13 -2 -13 4 0 3 -6 -3 -13 -9
-11 -15 -31 -26 -94 -4 -21 -15 -26 -30 -14 -17 15 -26 1 -46 -72 -12 -44 -17
-51 -64 -72 -28 -12 -62 -34 -76 -47 -52 -51 -88 -96 -83 -102 3 -3 -2 -8 -11
-12 -9 -3 -16 -12 -16 -20 0 -8 -4 -14 -10 -14 -5 0 -10 -4 -10 -10 0 -5 -21
-42 -46 -82 -73 -115 -78 -123 -75 -127 1 -2 -1 -7 -6 -10 -7 -5 -45 -64 -106
-166 -7 -11 -14 -22 -17 -25 -19 -19 -71 -92 -68 -95 2 -2 15 -8 28 -13 l24
-9 -41 -40 c-48 -47 -67 -79 -53 -88 19 -12 10 -23 -21 -27 -20 -3 -33 0 -36
9 -8 19 -20 7 -26 -26 -4 -17 -22 -63 -41 -103 -36 -78 -45 -127 -29 -168 14
-32 -2 -39 -26 -11 -24 27 -26 27 -27 -10 -1 -16 -4 -32 -6 -35 -7 -7 -39 7
-34 15 3 4 0 13 -5 21 -7 11 -9 -2 -6 -41 4 -68 32 -111 90 -141 23 -12 48
-23 56 -24 30 -5 33 -22 10 -53 -23 -31 -34 -81 -17 -81 4 0 8 -5 8 -12 0 -6
7 -19 15 -28 17 -19 8 -32 -32 -44 -19 -6 -23 -2 -31 25 -7 30 -10 25 -32 -67
-28 -113 -31 -205 -8 -231 12 -14 14 -40 11 -123 -2 -58 -5 -130 -6 -160 -2
-45 1 -55 14 -52 9 1 24 -7 34 -18 18 -20 20 -46 11 -105 -9 -50 -11 -60 -19
-72 -12 -19 -25 -133 -15 -133 5 0 6 -4 3 -10 -3 -5 -1 -18 4 -28 7 -13 6 -39
-3 -81 l-13 -62 26 7 c63 17 108 -7 92 -49 -41 -109 -56 -184 -46 -234 5 -29
9 -32 21 -23 8 7 14 20 14 28 0 12 3 13 11 5 18 -18 -3 -63 -70 -156 -34 -46
-66 -98 -72 -115 -12 -35 -24 -41 -33 -16 -10 25 -24 7 -21 -27 4 -44 18 -55
58 -42 39 12 71 2 86 -26 10 -18 7 -21 -31 -32 -24 -7 -49 -19 -56 -28 -16
-20 -12 -70 8 -97 20 -27 101 -122 121 -143 29 -30 58 -87 65 -129 6 -41 7
-41 24 -20 9 12 24 22 33 24 26 4 56 -38 61 -86 13 -124 19 -157 32 -189 15
-35 58 -81 76 -81 5 0 8 -8 6 -17 -4 -26 118 -144 191 -186 20 -11 38 -22 40
-23 1 -2 -1 -9 -5 -16 -39 -62 7 -141 136 -235 108 -79 135 -127 96 -166 -13
-13 -5 -24 65 -92 43 -42 79 -85 79 -94 0 -21 54 -73 99 -96 19 -10 54 -19 77
-20 23 -2 47 -6 53 -9 16 -10 13 -26 -4 -26 -25 0 -17 -14 43 -77 89 -94 128
-114 246 -128 64 -8 67 -11 56 -41 -10 -25 -6 -44 8 -44 4 0 57 -49 117 -108
87 -85 126 -115 186 -145 41 -20 83 -37 93 -37 9 0 15 -4 12 -9 -3 -5 9 -15
27 -22 17 -7 61 -30 96 -51 34 -21 67 -38 71 -38 5 0 10 -4 12 -9 5 -14 159
-121 173 -121 8 0 20 -7 29 -15 18 -19 78 -29 122 -21 18 4 46 19 63 33 17 15
41 28 53 29 13 1 48 3 80 5 31 2 54 7 52 11 -3 5 -11 8 -17 8 -7 0 -21 10 -31
22 -18 21 -18 22 23 61 24 22 40 46 37 53 -9 22 10 16 56 -19 30 -23 43 -40
43 -58 0 -19 -4 -23 -23 -21 -31 5 -40 -25 -15 -50 20 -20 126 -68 150 -68 18
0 53 -32 53 -47 0 -7 2 -13 5 -13 3 0 65 -11 138 -24 184 -34 197 -37 237 -41
19 -2 46 -6 60 -9 14 -3 41 -8 60 -10 41 -5 114 -16 150 -22 91 -17 511 -26
525 -12 4 4 -3 25 -16 47 -12 23 -20 43 -17 46 8 9 122 10 136 1 7 -4 12 -18
12 -31 0 -18 -7 -25 -32 -31 -32 -7 -33 -7 -10 -17 15 -7 26 -7 30 -1 4 5 18
15 32 22 14 7 35 28 48 46 23 34 43 39 77 19 17 -10 18 -14 6 -36 -7 -14 -24
-30 -37 -37 -41 -23 -38 -39 7 -28 21 6 36 15 33 20 -3 5 2 18 12 29 11 10 30
30 43 43 33 33 107 54 134 37 15 -10 21 -10 27 -1 4 7 16 10 26 7 17 -4 17 -6
-3 -12 -13 -4 -23 -14 -23 -21 0 -16 34 -18 76 -4 16 5 40 11 54 13 54 9 90
20 90 27 0 5 -13 14 -30 22 -52 22 -48 42 12 70 24 11 36 22 32 31 -4 11 10
14 68 15 54 0 97 8 166 31 88 29 120 43 282 119 36 17 77 34 92 37 15 4 34 18
42 30 23 35 92 97 134 120 20 11 41 24 47 28 5 4 19 15 30 23 14 11 16 17 7
20 -23 10 -34 42 -21 67 20 37 32 37 65 1 39 -42 60 -43 155 -3 62 25 97 34
152 38 4 1 7 8 7 17 0 8 22 39 50 68 61 65 83 105 68 123 -6 7 -18 13 -27 13
-14 1 -14 2 2 11 14 8 25 4 53 -20 19 -17 38 -31 43 -31 5 0 27 24 49 53 50
64 86 98 223 209 129 104 183 156 238 227 l42 54 -34 16 c-21 10 -33 23 -32
36 0 17 14 23 87 40 48 11 90 25 92 31 2 6 -3 32 -11 58 -14 43 -14 48 2 66
10 11 22 17 28 13 6 -3 7 -1 3 5 -4 7 -14 12 -22 12 -27 0 -13 25 51 95 36 39
65 75 65 82 0 6 4 13 9 15 9 3 86 138 114 199 70 153 99 222 121 294 2 6 6 17
9 25 11 29 39 115 43 134 2 10 8 24 15 32 6 8 9 14 5 14 -3 0 1 17 10 37 8 21
18 49 20 62 9 45 97 255 153 367 50 98 54 110 36 110 -16 -1 -19 4 -17 26 3
20 -1 26 -14 24 -10 -2 -30 4 -46 11 l-27 14 24 39 c14 22 25 44 25 49 0 5 3
11 8 13 12 5 64 108 54 108 -19 0 -32 55 -32 138 -1 56 -5 93 -14 105 -20 25
-27 21 -21 -13 3 -17 1 -30 -5 -30 -5 0 -10 4 -10 9 0 17 -81 2 -125 -23 l-43
-23 0 186 c0 102 -2 218 -6 256 -3 39 -8 95 -11 125 -7 82 -16 149 -26 204 -5
27 -7 51 -4 54 2 3 0 12 -4 21 -5 9 -11 34 -15 56 -3 22 -11 58 -16 80 -6 22
-12 49 -15 60 -2 11 -6 31 -10 45 -3 14 -8 32 -10 40 -2 8 -4 15 -5 15 -1 0
-3 9 -5 20 -7 36 -62 208 -98 305 -54 146 -78 200 -157 360 -31 63 -67 133
-80 155 -13 22 -30 53 -38 69 -17 34 -221 338 -231 346 -3 3 -22 25 -41 50
-83 108 -205 245 -302 340 -44 43 -56 61 -52 77 4 15 0 23 -14 27 -11 4 -24 5
-29 4 -4 -2 -28 12 -53 30 -24 17 -41 33 -37 33 31 6 61 22 80 44 23 26 64
111 72 150 18 87 18 87 -2 77 -20 -10 -58 -9 -85 3 -23 9 -23 -2 2 -48 12 -21
22 -55 23 -75 2 -34 0 -37 -25 -35 -39 2 -76 39 -83 85 -6 35 -8 37 -20 22 -9
-14 -29 -18 -76 -20 -35 -1 -75 -6 -89 -12 -21 -8 -34 -2 -91 36 -64 44 -66
47 -58 76 11 36 7 41 -20 26 -23 -12 -28 -30 -9 -30 6 0 9 -2 6 -5 -3 -3 -48
20 -99 51 -115 70 -176 104 -252 140 -37 17 -62 36 -68 51 -5 14 -17 23 -29
23 -11 0 -23 7 -26 15 -8 21 14 45 41 45 35 0 54 10 49 25 -4 10 13 12 78 10
94 -4 136 -15 185 -47 28 -19 33 -28 28 -48 -3 -14 -6 -31 -7 -37 -1 -14 -18
-18 -18 -5 0 12 -39 52 -50 52 -5 0 2 -12 16 -27 14 -15 33 -40 41 -54 16 -28
62 -59 85 -59 35 1 40 16 19 58 -12 23 -21 44 -21 47 0 3 33 3 73 0 72 -5 132
-12 132 -15 0 -1 11 -3 24 -6 13 -2 36 -14 53 -25 16 -12 32 -19 35 -16 3 3
-6 28 -19 55 -20 40 -26 46 -37 35 -10 -12 -20 -9 -59 13 -119 69 -122 70
-131 56 -6 -10 -11 -5 -20 16 -7 16 -34 51 -62 78 -27 26 -49 54 -49 61 0 7
-5 13 -11 13 -5 0 -8 4 -4 9 3 5 1 12 -5 16 -5 3 -10 -1 -10 -9 0 -22 -23 -20
-56 6 -15 13 -25 17 -20 10 4 -7 1 -12 -9 -12 -14 0 -14 -3 0 -30 15 -29 15
-31 -10 -40 -28 -11 -52 -9 -150 11 -33 6 -68 12 -77 11 -28 -1 -31 17 -6 38
l23 20 -53 -6 c-43 -5 -53 -4 -51 7 1 8 -2 25 -8 39 -24 57 -24 69 -6 78 10 5
25 8 33 6 8 -2 -8 7 -37 20 -28 14 -72 40 -97 60 -47 36 -101 58 -151 62 -16
1 -30 3 -30 4 0 0 -58 3 -130 5 -95 3 -139 8 -163 20 -25 13 -68 17 -192 20
-172 3 -193 6 -287 36 -73 24 -101 48 -57 50 16 1 37 1 47 0 32 -4 17 18 -17
25 -47 8 -100 -4 -87 -20 8 -9 7 -13 -2 -14 -6 -1 -40 -4 -75 -7 -35 -3 -66
-6 -70 -6 -4 -1 -10 0 -14 1 -15 5 -28 8 -43 9 -8 0 -17 12 -21 26 -5 20 -13
25 -38 26 -17 0 -39 2 -49 4 -61 12 -156 15 -179 6 -21 -8 -31 -7 -41 3 -7 7
-23 17 -35 20 -12 4 -22 10 -22 14 0 10 -138 11 -175 2z m1260 -344 c12 -9 16
-20 12 -35 -7 -27 25 -42 87 -42 62 0 85 6 155 35 79 34 127 35 179 6 67 -38
77 -95 29 -166 -15 -21 -27 -45 -27 -52 0 -31 -129 28 -187 87 -8 7 -16 11
-19 8 -3 -2 6 -14 20 -25 15 -11 26 -23 26 -26 0 -10 -90 -6 -112 5 -16 9 -19
8 -13 -1 6 -10 1 -11 -21 -5 -30 8 -174 42 -209 50 -11 2 -36 6 -55 9 -19 2
-46 7 -60 10 -26 5 -115 18 -137 19 -20 1 -16 9 19 39 86 73 263 121 313 84z
m-1648 -31 c12 -3 30 -7 40 -9 33 -7 127 -45 161 -66 48 -30 41 -45 -28 -56
-63 -11 -70 -7 -70 36 0 10 -4 21 -8 24 -4 2 -8 -14 -7 -36 l0 -41 -55 -13
c-35 -8 -59 -9 -65 -3 -12 12 -31 125 -27 157 3 16 9 21 20 18 9 -2 27 -7 39
-11z m731 -60 c-3 -3 -98 -13 -98 -10 0 7 38 43 55 53 17 9 22 7 33 -15 8 -13
12 -26 10 -28z m-1323 -117 c-5 -28 -10 -53 -14 -65 -1 -2 -2 -6 -3 -10 -2 -5
-10 -37 -18 -72 l-16 -64 -84 -43 c-47 -24 -89 -44 -94 -44 -4 0 -5 12 -1 28
4 15 9 43 11 62 5 39 53 150 65 150 4 0 9 8 11 17 3 16 4 16 20 0 25 -26 39
-21 83 28 22 24 41 45 43 45 2 0 1 -15 -3 -32z m3762 -685 c26 -14 61 -64 45
-63 -4 1 -27 19 -52 40 -47 41 -43 52 7 23z m-4959 -280 l38 -38 -28 -27 -29
-27 -8 22 c-9 26 -21 107 -15 107 2 0 21 -17 42 -37z m-893 -1769 c-5 -28 -9
-34 -16 -23 -12 20 -11 2 2 -22 9 -17 5 -25 -28 -55 l-38 -35 -7 28 c-11 42
-17 132 -9 137 4 3 19 -1 34 -9 23 -12 27 -12 27 0 0 12 29 26 39 19 2 -2 0
-20 -4 -40z"/>
<path d="M4530 7535 c0 -22 25 -29 62 -19 53 15 46 34 -11 34 -39 0 -51 -4
-51 -15z"/>
<path d="M4376 7887 c6 -16 70 -57 90 -57 30 0 7 24 -44 47 -30 13 -49 17 -46
10z"/>
<path d="M5481 7596 c-28 -12 -22 -28 14 -38 23 -6 33 -3 52 18 13 14 23 27
23 30 0 8 -65 1 -89 -10z"/>
<path d="M5980 7384 c0 -2 8 -14 19 -25 15 -16 20 -17 24 -6 3 9 -4 19 -19 26
-13 6 -24 8 -24 5z"/>
<path d="M5599 7193 c25 -21 71 -39 71 -28 0 1 -18 14 -40 29 -52 34 -73 34
-31 -1z"/>
<path d="M6296 7151 c-3 -4 -1 -13 4 -21 7 -11 11 -12 24 0 9 7 14 15 11 18
-9 9 -34 11 -39 3z"/>
<path d="M5996 7122 c-24 -23 43 -82 78 -69 24 9 19 42 -6 54 -30 15 -66 22
-72 15z"/>
<path d="M6489 7035 c-3 -2 -18 -6 -34 -9 -43 -6 -43 -7 -11 -16 29 -9 78 11
58 24 -5 3 -11 4 -13 1z"/>
<path d="M6125 7021 c-3 -5 -1 -12 5 -16 5 -3 10 1 10 9 0 18 -6 21 -15 7z"/>
<path d="M6533 6895 c67 -67 91 -85 71 -53 -5 7 -9 18 -11 23 -1 6 -6 25 -12
43 -5 17 -7 32 -3 32 4 0 -2 6 -13 13 -11 6 -39 13 -62 13 l-43 2 73 -73z"/>
<path d="M6668 6760 c29 -28 59 -47 66 -44 8 3 17 0 22 -7 5 -9 2 -10 -9 -6
-10 3 -17 3 -17 -2 0 -5 -22 -9 -50 -10 -56 -1 -90 -17 -90 -43 0 -26 46 -52
96 -53 l45 -2 -22 23 -21 22 28 4 c24 2 29 7 26 27 l-2 25 22 -21 c39 -35 46
-34 27 5 -13 25 -36 48 -69 67 -27 17 -50 34 -50 38 0 5 -4 5 -10 2 -5 -3 -10
-2 -10 3 0 6 -8 13 -17 16 -10 3 6 -16 35 -44z"/>
<path d="M6750 6772 c0 -11 4 -23 9 -27 6 -3 8 4 6 16 -6 30 -15 37 -15 11z"/>
<path d="M6880 6706 c0 -2 7 -7 16 -10 8 -3 12 -2 9 4 -6 10 -25 14 -25 6z"/>
<path d="M6992 6650 c17 -16 27 -30 22 -30 -5 0 -4 -4 1 -8 6 -4 15 -20 20
-36 15 -43 30 -42 47 3 19 47 16 50 -56 80 -65 28 -71 26 -34 -9z"/>
<path d="M6841 6588 c13 -18 28 -38 34 -45 28 -33 31 -39 28 -49 -4 -13 32
-47 54 -50 8 -2 0 10 -18 26 -29 24 -32 29 -16 35 28 12 20 33 -25 62 -24 16
-49 34 -56 40 -24 23 -24 14 -1 -19z"/>
<path d="M6990 6432 c0 -12 39 -32 44 -23 3 4 -6 13 -19 19 -14 7 -25 8 -25 4z"/>
<path d="M6776 6382 c-2 -4 -1 -14 3 -21 5 -7 6 -22 4 -32 -4 -15 -1 -18 11
-13 10 4 23 -2 34 -14 13 -16 22 -19 41 -11 l23 9 -28 22 c-16 13 -34 27 -41
33 -7 5 -19 16 -27 22 -8 7 -17 9 -20 5z"/>
<path d="M7172 6252 c-9 -26 -1 -64 12 -51 10 9 14 56 6 68 -5 9 -11 3 -18
-17z"/>
<path d="M7129 6124 c12 -9 30 -34 39 -55 16 -35 18 -37 37 -23 19 14 19 15
-5 31 -14 10 -35 28 -48 40 -13 13 -28 23 -35 23 -6 0 -1 -7 12 -16z"/>
<path d="M7355 6046 c-17 -25 -12 -51 11 -60 11 -4 14 4 12 39 -2 25 -4 45 -5
45 -2 0 -9 -11 -18 -24z"/>
<path d="M7270 6041 c12 -24 47 -45 54 -33 2 4 -11 18 -30 30 -33 22 -35 22
-24 3z"/>
<path d="M7056 5984 c-28 -62 -31 -74 -16 -74 16 0 51 -40 45 -50 -3 -5 -13
-6 -23 -3 -16 5 -16 5 0 -12 9 -10 23 -15 32 -12 19 7 21 38 5 54 -7 7 -12 42
-11 82 0 39 -1 71 -3 71 -2 0 -15 -25 -29 -56z"/>
<path d="M7202 5878 c-19 -19 -15 -48 7 -48 11 0 23 5 26 10 3 6 16 10 28 10
l22 1 -24 19 c-27 23 -42 25 -59 8z"/>
<path d="M7590 5650 c-12 -23 -1 -45 36 -73 l24 -18 0 49 c0 36 -4 52 -16 56
-25 10 -33 7 -44 -14z"/>
<path d="M7495 5640 c3 -5 11 -10 16 -10 6 0 7 5 4 10 -3 6 -11 10 -16 10 -6
0 -7 -4 -4 -10z"/>
<path d="M7381 5623 c0 -5 14 -19 32 -32 l32 -25 -29 32 c-31 33 -36 37 -35
25z"/>
<path d="M7505 5610 c-3 -5 8 -16 25 -25 17 -9 30 -11 30 -5 0 5 -7 10 -15 10
-8 0 -15 7 -15 15 0 17 -16 20 -25 5z"/>
<path d="M7583 5489 c0 -8 -1 -24 -1 -37 -2 -19 -5 -21 -22 -12 -27 15 -25 -2
5 -34 41 -45 58 -30 43 39 -9 39 -27 70 -25 44z"/>
<path d="M7670 5411 c0 -14 51 -64 58 -56 4 4 0 12 -9 18 -8 7 -18 20 -22 30
-6 17 -27 24 -27 8z"/>
<path d="M7480 5060 c-1 -8 -3 -24 -5 -35 -4 -19 11 -45 25 -45 11 0 5 52 -8
75 -8 15 -12 16 -12 5z"/>
<path d="M7577 5054 c-17 -18 -4 -78 35 -159 35 -75 40 -91 31 -114 -10 -26
-8 -28 28 -38 46 -12 49 -5 20 54 -48 96 -75 160 -90 210 -9 30 -19 51 -24 47z"/>
<path d="M7696 4555 c9 -14 21 -25 27 -25 6 0 0 11 -13 25 -13 14 -25 25 -27
25 -2 0 4 -11 13 -25z"/>
<path d="M7913 3953 c-26 -10 -13 -33 19 -33 30 0 31 0 13 20 -10 11 -19 20
-19 19 -1 0 -7 -3 -13 -6z"/>
<path d="M7803 3886 c0 -27 4 -32 21 -30 12 1 26 3 33 3 17 1 4 31 -13 31 -8
0 -14 4 -14 9 0 5 -6 11 -13 14 -10 4 -14 -4 -14 -27z"/>
<path d="M7890 3736 c-8 -11 -9 -20 -1 -33 10 -17 10 -17 11 3 0 11 5 25 12
32 8 8 8 12 1 12 -6 0 -16 -7 -23 -14z"/>
<path d="M475 2010 c3 -5 14 -10 23 -10 15 0 15 2 2 10 -20 13 -33 13 -25 0z"/>
</g>
</svg>
