<svg xmlns="http://www.w3.org/2000/svg" viewBox="65.25 -0.1 404.84 443.8"><style>.st0{display:none}.st1,.st2{display:inline;opacity:.5;fill:#834c83}.st2{opacity:.6}.st4{fill:#9c3cb3}.st5{fill:none;stroke:#fff;stroke-width:1.5;stroke-miterlimit:10}</style><g id="Capa_5"><circle cx="259.6" cy="247.7" r="181.8" fill="#651977"/><path class="st4" d="M458.5 246.3c-.2 1.8 2.7 1.1 3.2 1.4-.7-3.1-4-1.3-3.2-1.4zM449.4 217l1.3.3-3.7-3.7zM443.2 190.2c-2 2-1.2 4.3.1 6.8 1.4 2.5 3 5.2 2.8 7.8l-1 1 4.4 1.3c-.4-1.4-1.1-2.9-1.8-4.4l-2-4.5a19 19 0 01-2.5-8zM448.2 172.4c-1.4 1.6-2.8-2.5.8 3.6l.2-.8a24 24 0 01-1-2.8zM449.2 175.2c1.3 2.8.8-2.5 0 0zM442.7 162.6l3.2 3c.7-1.3-.5-4.7.8-3.8-2.6-3.4-3.3-2-4 .8zM437.8 160.8l1.5 1.5c.3-.5.3-1.1-1.5-1.5z"/><path class="st4" d="M442.6 165.6l-3.3-3.3c-.4.9-1.9 1.6 1.4 1.6-1.5.3.1.5 1.9 1.7zM442.9 168.2c0 1.2 0 2.6-.3 3.2-.3.7-1 .6-2.5-.8 1.8 3.3 3.3 4.4 4 3.8.4-.3.5-1 .3-2-.1-1.1-.6-2.6-1.5-4.2zM437.8 190.5l-.6 3 2.3 1.9c-.6-.5-.6-1.9-.7-3-.1-1.3-.3-2.3-1-2zM433 139.3c-1 .4-1.7 2.7-2.7 3.6l2.5 2c0-1.8-1-4.6.1-5.6zM430.3 143l-4-2.8c2 3.4 3.1 3.6 4 2.7zM432.5 162.6l1.6 1.2 1.6 1.1 3.2 2.4-7-5.9.6 1.2zM423.4 125.1l3.5.6-2.9-.7-2.8-.7 2.2.8zM416 116.5c2.8.1.9-4.2 3.2-3.5a18 18 0 00-8.2-3.7c2.4 1.2 4 3.5 5 7.2zM406.6 108c1.2.5 2.8.9 4.4 1.3-1.3-.7-2.7-1.2-4.4-1.3zM422.7 133.8c.3-.7 1.3-2.2.4-4.6l-1.4 3.1 1 1.5zM421.7 132.4l-2-3.2 2 3.2z"/><path class="st4" d="M423 134.1l-.3-.3c-.2.3-.2.4.2.3zM429.6 151.5c-2.7-1.4-6.8-4.9-6.5.7 2.7.5 2.5-2.7 6.5-.7zM421 138l2 4.1c.6-.5 1-1.8 2.5-1.2l-4.4-3zM419 136.7l2 1.3-.7-1.6zM410 115.8a8.7 8.7 0 01-3-1.6 36 36 0 01-2.7-2.3l2.2 3.4 2.4 3.1c1-.3 3-.5 1-2.6zM415.7 123.9l-.4-.2c0 .3 0 .5.4.2zM386.6 95.2v.7l.4-.4-.4-.3z"/><path class="st4" d="M408.8 119.1c.8 1.9 2.2 2.3 3.6 2.6-1.2-1-2.3-2-3.5-3.3-.4.2-.6.3-.1.7zM400.8 104a37 37 0 001.3 3.6c0-1.4-.5-4-1.3-3.6zM415.5 122.6l.3.1c0-.9-.1-.6-.3-.1zM415.5 122.6c-1-.5-2-.7-3-1 .9.9 1.8 1.5 2.8 2 0-.3 0-.7.2-1zM369.1 105.8c1-1 2.8-1.2 4.6-.6.9.3 1.8.8 2.5 1.5a7 7 0 011.5 3c4.5 1.2 8.6-7.3 8.9-13.8-1 .8-1.6 1.6-6.2.1.2 1.1 1.6 3.3 2.3 5.3.7 1.9.8 3.5-1.4 3.2-2.6-1.3-3.4-2.2-3.7-3.2-.2-1 0-2-.6-3.4-.1 2-2.4 2-4.8 1.9-2.4-.1-5 .1-6 2.5l4.9 1.5c-.4.7-2.6.6-2 2zM393 101.8l1.5 1a19.7 19.7 0 01-2.3-7.1c-3.3-1-4.5-.7-5.2-.1l6.7 6.4-.8-.2zM400.6 108.7c-.8.3-1.7.3-2.5.3h-2.4c-1.4.2-2.5.8-2.7 2.8 1 1 1.8 1.4 2.4 1.7.6.3 1.2.3 1.7.3 1 0 1.9-.4 3.5.3-6.6-5.8 3 .7-.2-5.1 1.5.9 2.7 2 3.9 3-.9-1.5-1.6-3-2.2-4.4v.3c0 .6-.1.8-.3.4l-.1-.1-1.1.5c-1.4-2.3.2-.9 1-.5l.5-.3c-1.2-1-2.5-1.8-3.8-2.6l-3.8-2.5c1 1.7 2.9 3.2 6 5.9zM415.3 151.7c0-.3.2-.4.4-.6-.6-.2-1-.3-.4.6zM415 147.9c.7.3 2 0 2.8 1.9.1 1.9-1.3.7-2 1.3 1.2.6 4 2.4 3.2-1.5l-.6-.3c-1-3.4-.2-9.2.4-9a23.3 23.3 0 00-3.8 7.6zM408.2 128.5c-1.8-1.6-3.7-3-5.7-4.5l.4 4.4 1-1.2c2.2 3.5 3 1.6 4.3 1.3zM387 93.5l2.7-1.8-6.2.8 3.4 1zM379 87.8l2-2-3-.2 1 2.2zM117.5 331.9l1.5 1.2a6 6 0 00-1.5-1.2zM111.4 320.2l-1.4.4c1 .2 1.5.1 1.4-.4zM154.8 78.3c-4-.5-9.4-1.9-7.3.5l2.5 2a7.9 7.9 0 014.8-2.5zM82 212c.4-.1.7-.3 1-.6l-2.3-2.5 1.3 3.2zM94 216.4l-2.6 3.2c.8-.7 1.7-1.7 2.6-3.2zM168 381.3l3.5-1.4c-2.7-1.7-2.4.3-3.4 1.4zM287.9 51.3a20.8 20.8 0 00-6.6-2.7c3.1 2.1 5.3 5 6.6 2.7zM86.7 343c1.1.9 2 1 2.5.7-1.1-1-2-1.3-2.5-.7z"/><path class="st4" d="M273.3 48l1.4.8c2-.4 4.1-.7 6.6-.2-2.3-1.6-5.2-2.5-8-.7zM396 339.7c.3 0 .4-.2.7-.3-.4-.2-.5 0-.7.3zM453 273.7c0 1 0 2.4-.2 3.7.3-.6.4-1.7.2-3.7zM346.2 66.4c2 .7.5-.2 0 0zM349.5 81.5a2 2 0 00-1.4 1c.5-.6 1-.9 1.4-1zM253.4 66.5h-.2c.6.6.5.5.2 0zM348.4 69l-2-2 2 2zM348.7 67.6l1.5 1c.4-.3.4-.7-1.5-1zM343.5 65.4c1.1.4 2 1 3 1.6-.3-.3-.4-.5-.3-.6l-2.7-1zM282.3 418.8l.4.3c1.6-1.5.9-1.2-.4-.3zM136.7 133.7v-.3l-.2.1.2.2zM134.3 139.8c-1.2-4.5.2-5.4 2.2-6.3-2.6-1.4-5.3-3-8-4.3l5.8 10.6z"/><path class="st4" d="M136.7 356.7l-.7-5c3.3.5 5.3 1.6 6.4 2 1.2.3 1.6-.1 1.8-2.8-1.9 1.4-3.5 1.5-5 .7-1.6-.7-3-2.1-4.4-3.7a17 17 0 00-4.2-3.8c-1.4-.9-3-1-5 .2v-3.5c.3.8.8.5 1.2 1.2.3-3.5-1.7-3.3-4.1-3.1-2.4.1-5.3.3-6.7-3.2-.7-2.5-.3-4.7 1.5-3.8l-4.9-3.7c-.3-.7 0-1.2.4-1.3.4-.1 1 .1 1.3.9l-4.6-7.2h.3c-2-.5-5-2-6.6-3 .4-2.5 1.4.7 2.2-.3l-4-3.5c.8-1.4 2-1.4 3.3-.6 1.3.7 2.5 2.1 3 3.7 3.4-4 2.5-4.6.8-5.6-1.5-1-3.9-2.6-3-7.9l2.7 3.6c2-2.3 2.2-4 2.3-5.8 0-1.9-.3-3.9.5-6.6-.7.8-1.9 3.7-3.4 6-1.6 2.2-3.4 4-5.3 2 .2-1.7-.1-3.5-2.8-5.6 3.2-1 1.7-3.3.6-6.5l4.4-1a6.5 6.5 0 00-3.2-2.4c-1.1-.4-2.3-.6-3.5-1.4-.5-4 2.7-5.5 5.4-7-.1-3-1.3-1.8-2.7-.6-1.4 1.2-3 2.4-4-1.3.1-1.4 0-2.6-.1-3.8-.2-1.2-.4-2.3-.9-3.5-.8-2.3-2.4-4.7-3.9-7.9 1.3-3.9 2.8.5 4-1l-3.8-3c0-.9 1.1-.7 1.7-.6-1.6-2.7-4.5 0-5.9-4.5-2.4-.5-.8-3 1-5.8.9-1.5 1.8-3 2-4.6.4-1.5.1-3-1.2-4.5 1.4-1.3 2.7.8 4.5.5-1.5-3.9-2-5.6-2.8-7.1-.7-1.6-1.5-3-3.5-6.5 1.2-1.7 2.3-3.3 3.7-5-2 1.8-3.8 1.2-5.4-.4-1.5-1.6-2.9-4.4-4-7a36 36 0 00-4.4 2.9l-.5-4-.3-4c1-.8 2.3.3 3.8 1.9a16 16 0 00-.7-1.6c2.2-2.3 4.4-.3 6.4 2l-3.3 2.1c2.3 2.4 5 4.6 7.7 4.7a5 5 0 01-.8-2.6c.6.6 1.2 1 1.7 1 .5-.2-.4-1.2-1.2-2.5l5.2-.5-1.8-.8 2.5-4.2 2.8-4-2.6-5.8a76.7 76.7 0 01-3.4-9.6 25.6 25.6 0 01-.5-7.3c.1-1.3.3-2.7.6-4 2.3 3.9 5.3 2.8 9.2 4.7-2.7.4-3 2.6-3 5.1v4c0 1.4-.2 2.7-.8 4 1.3-2.6 3-1.3 3.5-.4-.4-3.5-.4-6.9-.5-10.5 1.6.8 2.4.6 3.1 0 .7-.7 1.3-1.7 2.5-2.5-3.6-.6-4-2.7-3.4-5.3l.6-2 .7-2c.5-1.3.9-2.6.8-3.7 2.2.8 4 2.8 1.2 6.8 3.6-1.2 2.5-3.6 1.4-6.1-1.2-2.6-2.2-5.2 1-6.4-.5 1.1-1.1 1.5-.3 2.5-.3-1.7.9-3.9 2.1-5.3 1.3-1.4 2.8-2 3.3-.7l-.6 1 4-5.8c1.4-2.2 2.9-4.5 4-6.9 1.2-2.3 2.2-4.5 2.6-6.5.4-2 .3-3.7-.6-4.9.6.5 4.8 5.4 5.5 6.5-2.2-7.7-4-15.9-5.3-24.1 1.4 2.2 5.2 4.5 8.2 7.2 3 2.6 5.4 5.6 4.3 8.9.9-.4 1.9-.9 2.8-1.8 1-.8 1.8-2.1 2.6-4-1.4.2-7.5-3.1-6.6-4.7 3.8.4 5 .3 6 .1l2.2-.3c.9-.2 2-.3 4-.4-2.2.5-6-6.9-3.4-8.8.4 1.3 5.4 5.9 5 7.2l.4-5.4c0-1.9.3-3.6.5-5.5-.7 2.3 3.9 5.4 6.5 6.2-.7-.4.6-1.3 2.2-2.4 1.6-1 3.6-2.2 4.2-3l-3.7.2c3.8-1.9 3.8-5.4 4.1-9 .1-1.7.2-3.5.8-5.1a7 7 0 013.6-4.2c-.1 2 3 9.8 7.1 8.6l-.4-5.3c0-2.3-.1-5 .1-7.8.3-2.8.7-5.7 1.5-8.3a15 15 0 013.6-6.4l2.4 1.5c1.6-1.7 3.1-3.4 4.8-5-.7 3.5-2.3 9.5-3.8 15.1l-2.1 8.4-2 6.6c3.7.1 2.1 2 6.1-.3 2.4 1.2-.7 4-1.8 4.7l5-1.8 1.2-.4 1.2-.4 2.6-.7c-1.2-2 .1-4 1.6-5.8 1.5-1.8 3-3.5 2.1-5.2-3 2.9-6 6.1-8.8 9.1-1.2-2-1.1-5.7.4-9.3.7-1.7 1.8-3.5 3.2-5a12 12 0 015-3c1.4.5 1.7 2.6 2 4.8 0 2.1 0 4.3.4 5 .2-.9 1.6-2.4 3.2-3.3 1.5-1 3.2-1.7 3.7-1.2l-2.3 3.4c2.3.1 3.4-1.9 4.8-3.7 1.4-1.7 3.2-3 6.2-1.6 1 0 2.6 1 4 1.8 1.4.9 2.4 1.4 2.3 0-4-4.6-9-20.5-7.8-25l6.4 1.7 2.3.8a52.5 52.5 0 015.3 2.6c2 1.8 1.2 4.5.5 7.1-.8 2.6-1.6 5.1 0 6.7-.1-1.3 1.2-3.1 1.8-3.8 2.1.8 0 4.1 3.9 2.8 0-4.8 8.4-.7 1.3-4.3 2-.9 3.1-.8 4.3-.5 1.2.2 2.5.5 5 .3-1-1.5-.1-4.2 1.5-6.7 1.7-2.6 4.2-5 6.4-5.7-.3 1.2.8 2.7 1.3 3.5 2.2 0 4.1.2 6 .4l5 1a134.8 134.8 0 0010.4 1.7c.7 1.2 4.4 3 2.5 4.8 1.2-.7 2.4-2.1 5-2 4 4.7-5.5 0-2.6 5.4.6-2.7 6.7-3.1 10.4-4.1 0-1.1-.6-1.8-1.4-2.2-.8-.4-2-.5-3.1-.4-2.5.2-5.2 1.2-7 1.8a12 12 0 015-8 21 21 0 015.4-2.9c2-.7 4.2-1.2 6.5-1.5 3.7-.1 4.2 1.1 4 2.1-.1 1-1 2-.4 1.7 3.2 1 5.6 1 7.6.6 2-.3 3.6-1.1 5.2-1.8a11 11 0 014.7-1.3c1.7 0 3.6.8 6 2.7 1.4 2.5.8 4.3-.1 5.8-1 1.5-2.2 2.8-2.2 4.2-3-.2-4.7-1.5-6.4-2.8-1.6-1.2-3-2.6-4.9-3l4 3c-2 .7-5.8.6-7.5-1 .6 1 2.3 2 4.4 2.9l3.7 1.3 4.1 1.6 4.5 1.6 4.3 2c1.4.7 2.8 1.3 4 2.1l3.3 2.5c2-.4 5.4-.3 4.7-2.3l-3-.8c-.7-2 1-2.3 2.6-2.5 1.6-.3 3-.3 1.5-1.8 2.5-.1 5-.2 7.8.1 1.4.2 2.7.6 4 1.1a13 13 0 013.7 2.6l-1.2 4.3c.6-1.1-2.2-4.2-4.3-4 1.5-.1 2.9 2.3 4.4 4.4.8 1 1.7 1.9 2.6 2.3 1 .5 2 .6 3.4-.3L358 83l4 .2c1.4 0 2.9.2 4.3.4 1.5.2 3 .5 4.3 1 1.2.6 2.4 1.4 3.4 2.5.3-5-1.3-.3-1.9-6.8-.2 3.6-3.3 1.5-6.1-.3-1.4-1-2.8-1.9-3.7-2-1 0-1.4.6-1 2.7-.3-3.5-1.6-4.9-3-6.3-1.6-1.4-3.2-2.9-4.5-6.3-.5 1.4.5 3.3-3.5.5a6 6 0 01-1.5.6c-.2 0-.2-.1-.3-.2l.2.2c-.3.1-.3.2 0 .1.8 1.1 1.3 2.2 1.2 3-1.8 1-4.3.5-6.8 0s-5-1.1-6.4-.9c-2.2-1.7 1.7-1 1-3l-2.3.4-2.2.4c.9-3-5-7.6 1.9-6.8l-5.6-2.4a16.6 16.6 0 00-5.1-3.6c-2-.8-3.9-1.4-5.5-1.2-2.6-1.4-8 1.4-5-.3-1.5-.1-3.1-.3-4.7-.3l-4.9-.2v-.7c-4.4-1.4-9.5-.8-14.4-1-5 0-10-.9-15.1-4-1.6.3-3.2.6-5.1.7-1.9.2-4 .2-6.6-.4l-1-2.7c-2 .4-5.1-.2-8-.6-2.7-.3-5.2-.5-6 1-1.2-1.7-3.1-2.6-5.4-3a18.5 18.5 0 00-7.5.5c-2.7.5-5.4 1.1-7.9 1.8s-4.8 1.2-6.6 1.2l.4 3.6a36.4 36.4 0 00-3.6.8 41.5 41.5 0 00-7.3 2.9l-3.9 2 1.2 3c-2.1 2-5.4 2.2-9.2 2.7l-5.9.6c-2 .4-4 1-5.8 1.7 0-1.3 2.1-1.8 3.7-1.6-2.9-.8-5.5-.4-7.8.6a28 28 0 00-6.4 4.6c-2 1.7-3.9 3.7-5.9 5-2 1.4-4.2 2.2-6.7 2.3a5.3 5.3 0 01-4.7 2.6c.2 0 .3-.2.4-.4l-.8.4c-1.2 0-2.3 0-3.5.2 1.2.2 2.2.2 3 0-1.4 1-3.3 2.8-5 4.8l-2.8-2.3-.5.4c-2.8.4-.8 2.5 1.8 3.9-.8 1-1.4 2.3-1.6 3.5-2.4-1.6-3.5-.3-4.7 1-.6.7-1.2 1.4-2 1.7-.8.3-1.8.3-3.2-.4.2 1.7-2 4-3.9 6.7-1.7 2.7-3.2 5.7-1.7 8.4-.6-.6-1.4-.4-.4-1.3-2.5 1.3-5 2.7-5.6 5.6l-3.8-2.3-.2 4.2v4.2c-4.4.7-6.6.9-6.4-4a52 52 0 01-1.6 5.3c-.4 1.2-.8 2-1.2 2.8-.7 1.5-1.3 3-1.8 7.4l-1.9-2c-1.6 2.1-1.2 7.7-4 7.6-2 .4-4 2-6.3 4.5l-1.7 2a108.3 108.3 0 00-5 7.5c-4.6 7.3-9.2 16-14.5 22.1 4.3.3 2.7 1.6.8 3.2-1.9 1.6-4.2 3.7-1.3 5.1-2.2.1-4 1.8-4.6-1.2l-.7 2.8-.8 2.4c-.6 1.5-1.4 2.8-2 4a8 8 0 000 8.3c-2 .3-2.2-2.5-3.5-2 .2.7.9 3-.4 3.4-1.4.5-1.3-1.5-1.7-3-.5 2-.6 3.7-.2 5a7.3 7.3 0 002 3.5c1.9 1.8 4.6 2.8 7.3 3.7-1.8 1.7-2.7 3-2.8 4.4 0 1.4.8 2.8 2.3 4.6-2 1-4.3 3-4-2l-1.2 3.7a83.1 83.1 0 00-1.3 5.7c-.6 4-.6 7.6 1.7 8-1.2.8-.6 3.9-.2 4.6-.1 1.6-.3 2.8-.5 3.8l-.2 2.7c-.1 1.7-.2 3.3 0 6.4l.7-1.7c2.7 1.2 3 2.5 2.7 4-.2 1.6-1 3.5-.7 6l-.6-.2c-.9 2.8-1 4.6-1 5.7 0 1.2.2 1.8.4 2.4.3.5.5 1.1.4 2.3l-.3 2.2c-.1 1-.4 2-.8 3.5l3.3-1c3.6.1 2.9 2.6 1.7 6-1.1 3.2-2.6 7.4-.7 10.3l1.5-2.7c1.5 1.5-.4 4.3-2.6 7.4-2.2 3-5 6.4-4.8 8.3-.4 1-1.3-1-2-2-1.6 10.6 4.5.2 7.4 6.7-1 1-2.5 1-3.7 1.4-1.2.4-2.1 1.1-1.5 3.5-.5 1.5 2.4 4.3 5.3 7.6 1.4 1.6 2.9 3.3 3.9 5.1.4 1 .8 1.8 1 2.8a7 7 0 010 2.9c1.2-2 2.3-4 4.9-1.7.6 1.1 1 2.6 1 4.3.2.8.2 1.7.3 2.5l.3 2.7c.6 3.4 1.7 6.7 5.4 7.2-.1.8-.4 1.3-.8 1.5l2.7 2.6c1 1 2 2.2 3.2 3.2 2.3 2 4.6 3.7 6.5 3.8-2 2.3-1.7 4.5-.5 6.6 1.3 2 3.5 4 5.8 5.6 2.3 1.7 4.5 3.3 5.7 4.8 1.2 1.5 1.3 3-.7 4.8l4.1 4.2 4.3 4.1-1 .5a24 24 0 003.4 3.5c1.1.8 2.2 1.3 3.2 1.7 2 .7 3.8.7 5.6.6.8 1.6-.8 1.5-1.3 1.9 3.5 4.4 5.5 6.7 8 8 1.3.7 2.7 1.2 4.4 1.5 1.6.4 3.7.6 6.3.8l-1.2 3.4c.8 0 1.8.8 3 2.1a252.8 252.8 0 007.6 7.6 37.1 37.1 0 007.3 4.4c1.3.5 2.7.9 4.1 1-.3.3-.8.8-1.8.9 1.6.2 3.2.7 4.7 1.5l2.1 1.2 2.2 1.3c3 1.8 5.6 4.2 8.4 6a36.6 36.6 0 006 3.1l2 .4c2.4.3 4.8-.6 6.8-3.2l2.1-.1 2.1-.2 4.3-.4c-4.8-1.9-4-3-2.5-4.2 1.5-1.2 3.7-2.3 2-3.8 2 .1 4.1 1.7 5.2 3.2 1 1.4 1.1 2.8-1.3 2.5l-.6-.8c-.8 1.5-.5 2.5.4 3.4.9.9 2.4 1.4 4 2 1.6.5 3.3 1 4.5 1.6 1.2.6 1.9 1.3 1.6 2.4 10 1.9 19.9 3.7 29.8 5l7.4 1 7.4.4 3.7.2 3.7-.1 3.7-.1 3.6-.3-2.7-4.8 6.5-.5c2 1 3 3.6-1.9 4 1.5 1.3 3.4.4 5-.9 1.5-1.3 2.6-3.2 2.6-3.7 4.7.2 4.1 1.8 2.6 3.4-1.5 1.5-3.9 3-2.4 2.7l3.8-1-1-.5c1.4-1.3 2-2.5 3-3.5.6-.4 1.2-.9 2-1.2.8-.4 1.8-.8 3.2-1 3.8.2 2.6 2.6 4 2.5.1.4.6.4 2.2-.4l8.4-1.8-4.4-3c1.5-1.5 3.4-2 4.3-2.5.9-.6.7-1-1.7-2.8 3.6 2.6 11.3.8 18.3-2l5-2.3 4.4-2.1c2.7-1.3 4.7-2.2 5.8-2.1a22.7 22.7 0 015.7-6c2.2-1.6 4.7-2.9 7.4-4.5-1.7.2-4.9-3.2-.2-5.6 1 2.2 2 3.2 3.3 3.5 1.2.3 2.7-.1 4.2-.8 1.6-.7 3.2-1.5 5-2 .9-.3 1.8-.5 2.7-.5 1 0 1.9 0 2.8.4-3-.6 0-3.2 2.5-5.9a9.8 9.8 0 002.7-3.8c.2-1-.4-1.8-2.6-2 4-2.4 2.5 2.5 6.6 1.9a28.7 28.7 0 015.5-6.7l3.5-3 3.6-3 3.9-3 3.7-3.4c2.5-2.3 4.6-4.9 6.5-7.8-.9-.9-3.7-.3-3.4-3.6 3.1-.6 6.1-1.4 9.2-2.1.5-1.3-.6-2.9-1-4.2-.2-.7-.3-1.4 0-2 .5-.6 1.3-1.1 2.8-1.6-1.2 0-3 0-2.4-1.7a49.7 49.7 0 009.2-11.8 158.3 158.3 0 004.6-9l2-4.6c.6-1.6 1.3-3.1 1.8-4.7l1.7-4.8c1.1-3.2 2-6.4 3.2-9.6 1.1-3.2 2-6.4 3.3-9.6l1-2.4a69 69 0 013-7l2.4-4.8c.8-1.6 1.7-3.1 2.7-4.7-3 3.2-2.8.8-2.4-2-.8 1.7-3-.5-4.7-.4l3-5.2c1-1.8 2.1-3.5 3-5.4-2.2-1.2-2-4.2-2-7 .2-1.5.2-3 0-4-.3-1.2-.9-2-2-2.4l.7 3.5c-2.5-2.4-5.4-.8-8.6 1-3.2 1.9-6.7 4-10 3.5 1.4 1.3 1.5 2.7 1 4.2-.6 1.5-1.9 3-3 4.6a22.5 22.5 0 00-2.2 3.7l-.4 1.4c-.5 1.8-.1 3.8 1.6 6-1.6 1.5-1.9-1.8-3.5-1.2 2.5 2.5 2.5 5 .3 8.9l-.6-.7-.4 2.2-.6 2a50.8 50.8 0 01-6 13c-.5 1-1.3 2-2 3l-4.7 7.6 3.4.4c-1.6 2.5-2.8 2.6-4.1 3.5 3.1 5.2 3.6-7.3 7.4-2.3-2 .2-3.5 1.5-4.7 3.3-1.3 1.8-2.6 4-3.8 6.2l-.9 1.6a24.7 24.7 0 01-3.1 4.1c-1.5 1.5-3.1 2.3-5.1 1.8-2.4 3.7 4 .9 1.5 4.6h-2.4l1.6 2.3a4.8 4.8 0 01-3.4 1.7c-1.2.1-2.3-.2-3-.7.5-.4.7-1.9 1-2.5-2.1.8-3.4 3-4.4 5.1-1 2.2-1.9 4-2.5 4.3l3.6-2.5-2.5 4c-.9 1.3-1.7 2.6-2.8 3.9-2.1 2.5-4.2 5-6.5 7.4a144.3 144.3 0 00-6.6 7.4c-2 2.5-4.1 5-5.6 7.7l1.7.6a12.3 12.3 0 01-3.4 4c-1 .9-2 1.3-2.9 1.6a20 20 0 00-7.7 4.7v-.5c-.6 2.5-2.5 4.5-5 5.9.7-1.5-.8-1.6-2.2-1.8-1.4-.1-2.7-.4-1.9-2.2l-1.1 1.4-1 1c-.5.7-1 1.2-1.2 1.7-.7 1-1 1.5-1 2.1l-.3 2.3c-.1 1-.4 2.4-1.2 4.4l-2.6-1.6c-.4 1.5-.6 2.6-1.1 3.7-.6 1-1.5 2.1-3.8 3.5 1.5-2 .3-2.5-.8-3.1-1.2-.7-2.3-1.5-.8-3.8-3-.2-5.2.4-7 1.4-1.7.9-3.1 2-4.4 3.2-1.3 1-2.4 2-3.7 2.3-1.3.2-2.8-.2-4.5-1.7-1.1 4.1 1.3 4.4 3.8 3.8 2.6-.5 5-2 4-.8 1.5.7 1 2.3-.2 3.9a9.6 9.6 0 01-5.3 3c-1.6.5-3.7-1.2-6.4-2.8-1.3-.8-2.8-1.6-4.4-2-.8-.2-1.6-.3-2.5-.3-1 0-1.9 0-2.9.3.8-.1.8-.7 1.6-.8-1.8-.6-3 .4-4.6 1.2-.7.4-1.5.8-2.3 1-.9 0-1.8 0-2.9-.6-1.3 4.6-4.9.6-4.6 6.2l7.4-2.7c-2 1.1-3.8 3.5-6 5.3a9.5 9.5 0 01-9 1.9 13 13 0 013.8-4c-1.2-.6-2.2-.2-3.2.2s-2 .8-3.2 0a3 3 0 011.6-2.7c.9-.6 2.2-.9 3.6-1.1 1.3-.3 2.9-.5 4.3-1a8 8 0 003.7-2.5c-1.3-1-3.3.5-4.8 1.2-1.5.8-2.5 1-1.8-2.1-1.1 4-3.2 4-5.6 3.8-2.3-.3-5-.8-7.6 2.4l.2-3.4c-.9.6-2.6 2.2-4.3 2.2l2.8-4.4c-2.2 2-4.4 1.2-6.5.2-2.1-.9-4.2-2.3-6.3-1.3 4.4 0 4.9 1 4.8 2.4-.2 1.3-1 3 1 4.1a10 10 0 01-3.6 1c-1 0-1.8-.2-2.5-.5-1.3-.6-2.1-1.8-3-3.1-.8-1.3-1.6-2.7-3-3.8-1.4-1-3.3-1.7-6.4-1.5 1.6-.3 6 2.4 3.3 3.8-1.2-.5-2.5-1-3.7-1.8a9.5 9.5 0 01-2.8-2.6c-4-.2-3.8.7-3 1.8.7 1.2 2 2.5.1 3.3-2.2-4.3-4.2 1-8.2 1.7l.6-3.3c-1-.5-2-.8-2.7-.9l-1.7.1c-1 .3-1.4 1.1-1.8 2-.9 1.5-1.7 3-5.6.7l4.6-3.7-4.6.1 1.9-3.5c-2.7.8-4.4.8-5.9.5-.7-.2-1.4-.6-2.2-1l-2.7-1.6c.3 2.6-2.5 5.7-6.6 4.4-2-2.9 2.6-2.4-3.2-4.2 1-.7 2.1-1.6 3.1-1.7.5-.1 1 0 1.4.3.4.3.8.8 1.2 1.8.6-1 2-1.6 2.5-2.5-2-3-6.9-3.2-8.9-3.9.8.4 1.6 1 1.9 1.6l-4.9.6-4.9.3c-.7-1.7.7-2.2 2.1-2.6-.8-.2-1.7 0-2.7 0-1 0-2 .1-3.2-.4 1.8-2.1 2.9-4.7 6.6-4.4-2.8-.1-5.6-.5-8.5-.8 0-.7-.5-1.9-.8-3-.4-1-.6-2 .1-2.2-1.5-1.8-4.4-2-7.6-2.3-1.5-.3-3-.5-4.5-1a7.1 7.1 0 01-3.7-2.7c-.5.3-1.3.3-2.6 0-1-1-2-2-2.8-3.1l-2.6-3.3a14.6 14.6 0 00-7.9-4.5l.5-6c-2.1-1.4-2.3.6-2.8 2.4-.6 1.7-1.4 3.3-5.2 1-2.8-1.6-2.5-2.8-1.5-3.8.9-1 2.5-2 2.2-3.3-1.9-.2-4.7-.4-7.1-1.4-2.5-1-4.5-3-4.8-6.5 1.9 1 2.3 2.5 3.7 3.6zm-34.3-54l2.2 1.8c.7.7 1 1.5.3 2.2-2.1 0-2.8-.3-3-1-.1-.8.3-1.8.5-3zm-11.8-99c.8 1.1 0 2.5-1.7 3.8 0-1.2.5-2.6 1.7-3.9zM324.3 60.3l-.2.1c-2.8-2.3-1.8-1.4.2 0zm6 3.7c.8-.1 1-.6.8-1.1-.8.6-2.2 0-3.8-.8.2 1 .8 1.9 3 2zm-23.9 373.3l-1.5-.5c2.7-1.7 2.1-.6 1.5.5z"/><path class="st4" d="M92.6 215.9c-.6.3-1.2.2-1.9.2.5.6 1.1.7 2-.2zM167.4 381.6l.1.1c.2 0 .4-.2.5-.4l-.6.3zM230.6 82.2c-1.3-.3-2-.7-2.7-1.3.1.8.8 1.4 2.7 1.3zM365.9 75.4l-4.4-1.6c2 1 2.3 2 3 3 .3-.7.1-2.1 1.4-1.4zM382.9 114.5c.7.1 1 .8 1.6 1l1-1.3c-2-1.7-4-2-2.6.3zM363.3 87c-.6 1.4-.2 2.2.6 2.8.5.3 1 .6 1.7.8l2 1-.5-.4c1.5-1.3 1.4-2.2.5-2.9-.9-.6-2.6-.9-4.3-1.2zM368.2 91.8l2.3 1.6c1.2-1.1-.8-1-2.3-1.6zM339 65.7c1.1 1.3 2.4-3 2.7-1.5 1.5-1.3-1.2-1.4-3.3-.8-1 .2-1.8.6-2 1 0 .5.7 1 2.7 1.3zM360.2 96.2l1-3.5-2.9 1.5zM341.9 82.6l3.6 3c.2-.6.9-.6 1.7-.5-2.5-1.4-5-3.4-5.3-2.5zM347.2 85.1c1.3.8 2.5 1.4 3.5 1.3-.7-.3-2.3-1.1-3.5-1.3zM354.4 93.7l-.8-1.3-2.6-1.8 3.4 3.1zM295.1 66l-5.1.1c-.7 1.1.5 2.1 2.4 2 1.3-.6 3.3-.8 2.7-2zM307.4 78.8c-1-1-1-1.8-1.4-3.1l-1.2 4.2 2.6-1zM293.6 76.6c-.7 1-7.4 2.2-1.5 3 .4-.6 1.8-1 2.5-1.3.4-.2.7-.4.6-.7-.1-.3-.6-.6-1.6-1zM221 72l1.3-.4-1.7-7zM170.5 111.3c5.4-1.3-1.3-4.4 4-5.1 0-1-1-1-2.1-.8-1 .2-2.1.5-2-.5-1.8 3.3-3.7 3.3.1 6.4zM170.5 104.9c.3-.5.6-1.1.8-1.9-.6 1-.8 1.5-.8 1.9zM458.3 259.1l1.6-4-2.4 2.5.8 1.5zM453.3 251.1l4.5-.9-4-2.5c.1 1 .5 2.7-.6 3.4zM108.3 291h-1c-1 .9-1 1.6-.7 3.2l1.7-3.2zM123.5 333.2l-.3-.7-2.7 3.4zM151 359c-.4-.5-1.2-1-1.9-1.4-.7-.5-1.4-1-1.8-1.6 2.7 2 .5 7 3.8 3z"/></g><g id="Capa_2"><path id="exterior_1_" class="st5" d="M168.8 378.9c1.8.6 3.3.7 5.7.8a85.3 85.3 0 0023.9-2c1.7-.3 8-1.4 18.4-3.9 6.7-1.6 11.7-6 14.5-3.7.4.3.3.3 1.4 1.7 2 2.7 3.7 4.2 5.4 6 2.3 2.1 4.5 4.3 6.7 6.8 2.5 2.9 2.5 3.4 6.5 8.6 4.6 6 5.9 6.8 7 6.7 1.2-.2 1.7-1.4 3.7-4.4 1.7-2.4 3.7-4.5 5.5-6.8 3.9-5 6.7-6.3 12.2-11.4 9-8.5 6.7-10 12.7-14.3a43.1 43.1 0 0118.8-6.4c6.5-1.2 12-1.3 19.4-1.4 12.4-.2 17.8.8 20.3-2.7.8-1.1 0-1 2.1-8l2.6-8.5c1.4-4 1.5-4 1.8-5.4.4-1.8.4-3 .4-7.6v-6.4c0-1.4 0-4 1.2-15.3 1-10.7 1.3-10.6 1.2-13.4 0-3.7-.1-7.2-1.5-11.6-1.9-5.7-4.8-9-3.7-10.2.7-.6 1.8.4 5.3.6 2.1.1 4.9.3 7-1.2 1.5-1.2 1-2 3-4.6 2.3-2.8 3.3-2.5 4.2-4.5.9-1.8.1-2.2 1-5.1.1-.7.7-2 1.8-4.6l2.5-5.4c1.9-3.8 1.8-3.3 2-4.1 1.4-4-.2-8.1-.6-9.1-1.5-3.7-3.2-4.1-3.3-6.8 0-1.7.7-2.9 1.8-4.8 2.3-4.2 4.1-4.1 4.8-7 .6-2-.4-1.9-.1-5.8.2-3.4 1-3.8.6-5.7-.5-2.7-2-3-2-5 .2-1.8 1.4-2 2.3-4.3.8-2.2.4-4.3 0-6.3-.4-1.9-.9-3-2.4-6.3-3.3-7.6-3.1-7.3-3.4-7.7-1.3-2-3.3-3.9-7.3-7.8-1.3-1.2-2.8-2.6-3.4-5-.3-1.2-.2-2.3-.1-3 .6-6.7 1.1-8 1.2-9.9 0-1.7-.3-1.6-3.7-11.1l-2.8-8.1c-2-6.5-2-7.6-3.5-10.7-1.3-2.5-2.5-4-4.3-6.5-2.7-3.6-4.6-6-8-8.4-2-1.3-4-2.8-7.1-3.3-5.3-1-7.2 1.8-11.3.2-2.5-.9-2-1.9-5.8-3.8-.6-.3-1.7-.8-6.7-2.3l-6.8-2a52.3 52.3 0 00-11.4-1.3c-4.4 0-8.2 0-12.7 2-1.4.6-5.2 2.3-8.6 6a20 20 0 00-5 8.2c-.8 2.7-1.3 6.6.1 7.3.7.4 1.3-.3 1.6 0 .7.6-7 5.9-7.3 9.4 0 .3 0 .8-.2 1.5-.5 1.4-1.4 1.6-1.9 2.8-.4 1 .2 1.3-.1 2.4-.5 1.6-2 2.8-4.9 5.1-1 .8-1.6 1.2-1.6 2 0 1 1.5 1.3 1.6 2.3.2 1.2-2.2 2.3-5.8 4.2-5.6 3-7.4 4.5-8.7 6.3-1.4 2-1.5 3.2-1.5 3.7 0 2.3 2 4.1 2.4 4.6 1.3 1.3 2.4 1.5 2.6 2.6 0 .4-.1 1-.5 2-.7 1.7-1 2.5-1.6 2.6-.7.2-1-.8-2-.7-.6 0-.6.4-1.3.7-.9.3-1.7 0-3-.3-1-.3-1.3-.5-2.1-.5-.5 0-1 0-1.2.2l-1 .7c-1 1.4-11.8-1-19.4-1-4 .1-6 1-8.6-.6-.8-.4-1-.7-4.6-3.2a18.6 18.6 0 00-11.2-3.8c-3.6 0-3.8 1-5.3.6-2-.6-1.9-2.4-4.8-3.8a9.6 9.6 0 00-2.6-.8c-1.4-.3-2 0-4.7.3a11 11 0 01-4.4 0c-1.3-.4-1.3-1-2.6-1.2-1-.2-1.8 0-3.5.3-1 .1-.9.2-4.7 1.3-1.5.4-2 .6-2.5 1.2-.4.6-.6 1.5-.3 2.3.2.9.9 1 .8 1.3-.2 1.3-18.3.6-19.4.6-1.4-.1-4.6-.2-7.1 1.7-.3.2-1.3 1-2.1 2.3a11.8 11.8 0 00-1.5 5.7c-.5 5-.8 7.4-.6 10.4 0 2.9.4 4.8.6 6.2.6 3.8 1.3 5.1 1.7 6 .5.7 1.2 2 2.7 3a11 11 0 005.8 1.8c2 .2 3 0 7.5-.7 6.8-1 7.6-1 8-.5.8 1-.6 2.5-3 8.1-2.6 6.6-2.9 9.4-3 10.3 0 2.7.3 5 .3 5.5.3 2 .7 2.8 1.3 6.3l.6 3.7.9 5.9c.3 2.6.2 3.7 0 10l-.2 9.8c0 3.3.2 5.7.5 10.3l.7 10.7.9 13.5c.4 7.8.2 7.3.6 13.3.2 3.4.5 8.5 1.3 15l1.6 11c1.3 7.9 1.8 9 2.5 14.6.4 3.3.3 3.8.9 8.3.3 2.8.7 5.5 1.3 9 .8 4.6 1 4.5 1.5 7.7l.9 7c.6 4.5 1 5.4 1.7 6.2 1.4 1.7 3.2 2.3 4.5 2.8z"/><path id="mano_1_" class="st5" d="M153.3 189.3l1.4-2.4c.8-1.6 1.4-2.9.9-3.7-.3-.4-.6-.4-1-.7-1.1-.8-1-2.2-1.4-4.1-.5-3.5-1.3-3.4-1.2-5.6 0-.7 0-2 .9-3.6.7-1.4 1.8-2.3 2.7-3 1.2-1 2.1-.8 3.4-2l1.1-1.1c1.4-1.7 1.3-2.2 2-3 1.2-1.4 2-.8 4.3-2.4 1.4-1 2.2-2 2.1-2 0-.2-1 .9-2.1.7-1-.2-2-1.5-2.2-2.6-.2-1 0-1.8-.2-1.8s-.3 1.2-1 1.8c-.8.7-2.2 1-5.5-.4"/><path class="st5" d="M155.4 183a13 13 0 00.1-9.8M165.8 173.7l-2-6.6c-.3-.7-.6-1.7-1.5-2.5-1-.7-2.1-.8-2.8-.8M165.8 173.5c.4-.9 1-2.2.8-3.6-.2-1-.7-1-1.4-2.8-.4-1-1-2.6-.7-4.5l.6-1.8M175 174.6a34 34 0 010-8.8c.4-2.1.9-4.2 0-6.9-.2-1.1-.7-2.6-2.1-3.4-1.9-1-4 0-4.4.1M182.9 174.3a33 33 0 00-1.7-11.7l-.8-2.4c-.7-2.1-.4-3-.8-4.2-.5-1.6-1.6-1.7-4-3.6-1-.8-2.3-2-3.7-4"/><path class="st5" d="M180.8 161.7c.2-.1 1.4-.6 1.6-1.8.3-1.2-.8-2.7-2.6-3"/><path id="mano_y_hombro_1_" class="st5" d="M187.4 152.6a48 48 0 014.3 4.4c.5 1.1.4 2.1.4 3 0 1.5-.3 1.6-.4 2.9-.1 1.6.3 1.8.4 4 .1 1.7-.2 3.1-.3 3.8-.4 2-.8 1.9-1 3.3-.3 2.1.4 2.6.6 6.2 0 1.3 0 2-.2 3 0 .6-.4 2.1-1.6 3.8-1.1 1.6-2.2 2.1-3.2 3-1.2 1-1.5 1.9-4.1 7.5-3.4 7.5-3.3 7-3.8 8.4-1 2.7-1.7 4.6-2.7 8a42 42 0 00-1.9 7.4c0 .9-.1 1.8.4 7.5l.8 7c.6 5.5 1 7 1.6 12 .5 3.5.7 6 1 9 1 10 .7 10 1.4 14.3.4 3.5 1.3 6.9 2.9 13.7 1.5 6.2 1.7 6.3 3 12.3 1.8 7.3 1.6 7.6 2.6 10.7 1.6 5.3 2.3 5.1 4.5 11.2 3 8 3.3 12.5 5.5 12.8 1 0 2.4-.7 2.6-1.6.2-.8-.6-1.2-.4-2 .2-1.2 2.5-1.5 5.8-2.9 1-.3 1.9-.8 3.9-1.7 6.6-3.3 6.4-5.1 10.8-6.5 3-1 4.4-.5 6-2 1.2-1.4 1-2.6 2.3-4.2 1.3-1.6 3-2 5.7-3a57 57 0 0013.5-4.8c2.9-1.8 4.4-3.7 4.8-4.2 1.6-2 1.5-2.8 2.8-4.9 1.9-2.8 4-4.3 7-6.4 3.4-2.5 6.3-3.8 7.4-4.3 1-.4 2.2-.9 3.8-1.3a38 38 0 0125.8 3.8c3.3 1.3 5 2 5.7 2.5.8.6 2.4 1.8 6.1 7.8 2.4 3.8 3.6 5.7 4.9 8.5 2 4.5 1.3 4.7 3.7 10.2.4 1 1.4 3.2 2.5 6.2 1.1 3.3 1.2 4.3 1.1 5 0 .6-.1 1.7-2.5 5.8-2.2 3.7-2.7 3.8-3.7 6a26.8 26.8 0 00-1.8 5.7c-.6 2.4-.3 2.7-1 6.5a17.2 17.2 0 01-2.6 6.5"/><path class="st5" d="M197.3 332a10.4 10.4 0 01.3 9.4"/><path id="camiseta_1_" class="st5" d="M229.8 368.8l-9-9.8c-3.7-4-4.9-5.3-6.4-7.2-1.4-1.7-3.8-4.5-6.4-8.3a105 105 0 01-7.9-13.1"/><path class="st5" d="M235 307.1c1-1.1 2.4-3 4-5.2 1.7-2.2 2.4-3.4 4.1-6 4-5.8 4.2-5.4 6.4-9 2.2-3.3 3.6-5.6 5-9 .6-1.6 1.2-4.2 2.5-9.5 1-4.5 1.2-5.7 2.1-8.4 1-3.3 1.6-4.9 2.7-6.6 3-4.6 8.4-7.5 9.5-6.5 1.4 1.3-5.2 8.4-3 11.4 1 1.4 3.5 1 7.8.5 8.9-1 11.2-4 15.9-2.5 2 .6 2.5 1.4 4.7 1.6 1.9.1 3.7-.5 7.3-1.6 2.7-.9 4.1-1.3 5-2 2.8-1.8 2.4-3.4 4.7-4.7 2.4-1.2 5-.7 6.1-.6 3.6.7 4.4 2.6 6.7 2 1.7-.4 1.7-1.7 3.5-2 2.2-.2 3.1 1.6 4.5 1 1.6-.6.9-3.3 2.5-4 1.7-.9 4.5 1 6.3 2.3l2.2 1.7s1.3 1.4 4 6.1v1.6c0 .8 1 2.8 6 8.2M268.9 258.8a10.1 10.1 0 01-8-3.6"/><path class="st5" d="M271.4 247.3a50.3 50.3 0 001.8-10.3c-.1-1.5-.5-1.8-2.4-6.6-1.5-3.8-2.3-5.6-2.7-7.3-.8-3-.5-3.3-1.5-7 0 0-.6-2.1-1.8-5-.7-1.9-1.2-2.8-2.1-3.7a9.2 9.2 0 00-3.8-2.2c-1.4-.5-2-.5-6.1-.9-4.3-.4-5.4-.6-6.5-.9-2.6-.6-3.8-1.2-4.4-1.6a11.5 11.5 0 01-5.1-7.3c-.2-1.2-.1-2 0-3 .2-2.2 1-4 1.2-4.5a48 48 0 012.3-4.4c.5-.9 1-1.5.7-2.2-.2-.8-1-.8-1.4-1.8-.6-1.1 0-2-.6-2.3-.4-.2-.7.2-1.3 0-.6-.2-.7-.6-1-.9-1-.5-2.4.4-2.7.6-2.8 1.6-9.8 1.3-22.2 3-.9.2-2.2.4-3.8 1.1-1.5.8-2.8 1.8-3.6 2.5-1.2 1-1.2 1.3-2.3 2a18.5 18.5 0 01-10.3 3.7c-1.2 0-2.2-.1-3-.3M130.2 187.6c1-.3 2.7-1.1 3.9-2.7 1-1.5 1.1-2.8 1.4-5.5a40.3 40.3 0 00-1.2-14c-.5-2.7-.8-3.8-1.6-5a6.7 6.7 0 00-3.6-2.8"/><path class="st5" d="M237.2 159.7c.6.8 1.4 2 1.9 3.6.1.5.4 1.6.4 4.6 0 2.8 0 4.3-.4 5.8-.5 1.2-1 2-1.4 2.6M210.6 159.8a7 7 0 01-2.7 2.9c-.9.4-1.5.6-5.7.8a23.2 23.2 0 01-10.5-.7M160.1 163l-8.7.4-9.2.1a39.1 39.1 0 01-8.4-.7M243.8 160.5a9 9 0 011 2.3c.2 1 .2 1.5.3 3.2.2 2.4.4 2.3.4 3.4 0 1 0 2.3-.5 4"/><path class="st5" d="M239 176.2a25 25 0 003.4-1.4c1.2-.7 1.6-1 2.6-1.4 1.6-.5 2 0 2.5-.5.5-.4.7-1 .7-5.2 0-3.2 0-4-.4-4.9-.4-1-1-1.8-1.4-2.3M259 205.2c6.1.5 10.3-.6 13-1.8 1.9-.8 3.5-1.7 6.3-2.1 3.5-.5 4.8.4 7.3 0 2-.4 4.8-1.6 7.8-6M248.5 154s0-.6.4-1c.5-.3 1.1 0 1.2 0 .6.2.6 1 1 2 .6 1.3 1.3 2 2.2 3 .9 1 1.3 1.2 1.8 1.2.4 0 .7-.2 1-.4"/><path class="st5" d="M241.2 180l3.8-1.5c1-.3 2.1-.8 3.2-1 .2 0 1.8-.5 3.4-1.3.1-.1.4-.2.5-.5.2-.6-.5-1.2-1.2-2.5-1-1.7-.6-2.4-1.6-3.5l-1-.8M247.8 172.5a5.3 5.3 0 014.3 3.2"/><path id="pest_1_" class="st5" d="M257.6 132.8c0 .2-.3.5-.8.8-.6.3-1.2.3-1.4.3-.7-.1-1.2-.5-1.4-.6"/><path class="st5" d="M258.2 133.2c0 .2.2 1-.3 1.4-.3.4-.9.4-1.7.3l-1.6-.2"/><path class="st5" d="M258.4 133.2c.1.2.4.9.1 1.6-.3.9-1 1.2-1.4 1.3a3 3 0 01-1.7.1M268.7 138.4a6 6 0 002 3.2c.3.2 1 .7 3 1.2 1 .3 2.9.6 5.1.5"/><path class="st5" d="M270.5 141.2l-.5.9c-.7.8-1.6.9-1.9 1-.8 0-1.4-.2-1.7-.4M271.7 142c-.1.5-.4 1-1 1.6a4 4 0 01-3.3.7M273 142.6c-.2 1-.6 1.7-.9 2 0 0-.3.5-2.1 1.6l-1 .2M275 142.8a6.4 6.4 0 01-2.5 3.5c-.9.6-1.8.7-2.3.8M274.6 108.5c1.5 0 2.6.4 3.3.7 1.6.6 2.2 1.4 3.4 1.2.8-.1 1-.5 1.7-.4.7.1 1.3.7 1.6 1.4.5 1.2-.7 2-.5 3.5 0 1 .7 1.6 1.8 2.7 2 2 2.7 1.4 5.2 3.6 1 .7 1.5 1.3 2.4 1.3 1 0 1.6-.8 2.1-.5.7.2.5 1.4.8 2.9.3 1.2.6 1.4 2.4 4.2 2.2 3.5 2.8 5.1 3.2 5 .4-.2 0-2.6 0-2.6s-.4 5.8 2 7c1.6.8 3.2-.8 4.2 0s-.2 2.6 0 5.9c.1 3.4 1.4 3.4 1.4 6.2 0 1.6-1 3.7-3 7.9-1.8 4-2.4 5-2 6.2.7 1.6 2.8 2.2 4.4 2.6 6 1.5 8.2-1.5 12.7.1.3.2 4.7 1.8 5.6 5.6 0 .3.5 2.7-.6 4.9l-1.5 2c-.8.9-1.3 1.2-2.2 2-1.4 1.5-1.3 1.6-3.2 3.5a23.2 23.2 0 01-2.2 2.2 12.9 12.9 0 01-4 2l-3.1.5c-1.8.2-2.2 0-4.6 0H300c-2.2 0-2.8 0-3.3-.6-.5-.5-.6-1.4-.6-1.6-.1-.9 0-1.5.2-1.9.4-1.1 1-1.8 1.5-2.2"/><path class="st5" d="M305 179.2c1-.2 1.5-.6 1.8-.9 1.1-1 .8-1.9 2-2.6.7-.5 1.2-.3 1.5-.9.3-.5.2-1 0-1.5"/><path class="st5" d="M313.9 171.1c-.1.6-.1 1.6.2 2.6.4 1.1.9 1.4 1.2 2.5.2.4.2.7.2 3 0 3.3 0 3.6-.3 4-.8 1.2-2.4 1.4-2.8 1.4-.3 0-1.7.2-3-.6-1-.7-.8-1.4-1.7-1.7-1-.4-1.4.4-2.7 0-.4 0-1.4-.2-2-1.1-.3-.6-.2-1.3-.2-1.6"/><path class="st5" d="M305.3 187.3a12.7 12.7 0 008.6-1 29.9 29.9 0 007.8-6.4c2-2 2.2-2.8 2.2-3.4a4 4 0 00-.8-2.7M311 178a3.3 3.3 0 01-1.3-2.1M313.4 171.7c-.4.5-.9 1.2-1.1 2.1-.2.6-.4 1.4-.1 2.3.2.6.4.8 1.1 1.8l1.3 1.8M316.6 189c-.8.5-2 1.3-3.1 2.5-1.8 1.9-2.2 3.3-3.8 5.8-1.1 1.5-1.2 1.4-3.6 4.2-1.8 2.3-3.6 4.4-5.3 7-2.4 4-2 4.6-4.4 7.9l-4.2 5c-5.1 5.6-6.5 6.3-6.5 8.3 0 1.5.9 2.6.4 4.9 0 .1-.3 2-1 2-.5 0-.6-.8-1.2-.9-.9 0-2 2.8-1.4 3.3.6.5 3-2.6 4.4-2 .7.4.7 1.6.7 2.7 0 1.9-.5 3.4-.9 4.1-1.2 2.7-3.2 4-4.4 4.9a9.3 9.3 0 01-4 1.9c-1.4.2-2.2-.1-2.6.4-.5.8.3 3 2 3.8 1.3.8 2.4.2 4.5 1 .9.4 1.5 1 2 1.3M268.7 225c-.4 3.1-1 5.5-1.7 7-.8 2.4-1.2 3.5-2 4.9-1 1.9-1.9 2.6-1.8 4a4.4 4.4 0 001.6 3c1.6 1.2 3.5 1 4.3.8 1.6-.2 2.8-1 3.4-1.5M322 196c.6 1.8 1.4 4.6.9 8-1 5.7-5.2 9.2-6.8 10.6-3.3 2.8-4.4 2.1-7.3 5-1.6 1.5-4.3 4.2-4.7 7.9-.8 6.6 6.3 11.5 6.7 11.8M341 186c.3 5.4 1.4 9.4 2.4 12.1 2.2 5.9 4.6 8 3.9 12-.7 3.6-2.9 4.3-2.4 7.1.5 3 3 3.1 4.1 6.8.5 1.7 0 1.8 0 6.8 0 3.6 0 5.4.6 6.4 1.3 2.6 3.3 2.5 6.2 5.9 1.1 1.4 1.9 2.7 2.3 3.5M300.8 97c-1.7.9-4.4 2.5-6.1 5.6a16.6 16.6 0 00-1.8 8c-.2 3 .2 5.6.6 7.3M304.4 105.3a14.3 14.3 0 00-6.8 14M289.4 94.4a20.6 20.6 0 00-8.8 9.4M328.1 151.1c1.3.9 3.3 2.2 6 3.6 3.8 1.9 5.6 2 7.9 3.8 1.3 1 3 3 4.4 6.4M345.2 132.6c1.8.3 4.2 1 7 2 3.2 1.3 5.6 2.3 7.7 4.5 3 3.1 3.6 7 3.8 9.4M339.9 143.8a13 13 0 018 3.8c2.3 2.6 2 5 4.3 6.8 1.6 1.1 4 1.8 8.3.8M357 193.4c1 .2 6.6 1.6 9.3 6.8 2.3 4.3 1.1 8.8 1 9.7-1.3 4.6-4 5-4.2 8.8-.1 2.7 1.2 4.8 3.5 8.2 1.6 2.4 4.3 5.8 8.6 9.1M299 185.6c-.7.2-2.5.9-3.6 2.7-.4.6-1.7 2.6-.7 4.4.6 1 2 2 3.3 1.6 1.5-.4 2.6-2.3 2-4.2M305.7 176.7c-.4.3-1.1 1-1.5 2 0 .2-.6 1.9 0 2.2.4.3 1.2-.1 1.6-.6.7-.6.7-1.5.6-1.7"/><path class="st5" d="M322.3 177.1c-.2.2-.9 1.4-.5 2.8.2 1 1.1 2.3 2.5 2.4 1.2 0 2.3-.8 2.7-1.8a3 3 0 00-.3-2.6M270.7 234c-2.3 2.1-2.7 3.6-2.5 4.5.3 1.1 1.2 1.6 1 2.4-.1 1-1.8 1.4-3.3 1.6M271.2 125.7a14 14 0 0112.5 2.2 20 20 0 016.3 6.6M307 157.7c-.7.2-2.5.7-3.6 2.2-.7 1-.8 1.8-1 3-.5 3.1.5 3.7-.2 5-1 2-3.3 1.5-4.3 3.4-.6 1.1-.3 2.4 0 3.3"/><path class="st5" d="M308.1 155.4c-.5-.1-1.5-.3-2.6-.2-.4 0-2.5.4-3.7 2-1 1.4-.3 2.4-1.4 3.7-.8 1-1.6.9-2.7 1.8-.9.7-1.8 2-2.2 4.7M304.5 138.7c0 1.6.1 3 .3 3.9a51.8 51.8 0 003.5 9M303.5 204.7a6 6 0 00-3.9.5c-1.9 1-2.7 2.8-3 3.7-.3.6-.1.4-.8 2.7-.8 3-1.2 3.7-1.9 4.1-.6.4-1.2.4-1.6.3M294.1 219.2c-.1-.2-2-1.6-3.9-1-1.5.6-2 2.3-2.3 2.8-.6 1.6-.1 2.3-.7 3.1-.5.6-1.4 1-3.1 1M284.8 238.5c0 3.4-1 5-2 5.9-1 .8-2.3 1.4-3 3-.3.7-.4 1.4-.4 1.8M299.4 231c.5 1.6 1 4 .3 6.5-1.1 3.3-3.7 4-5 6.8-1 1.9-1.5 5 .8 10.5M335 214c1.2 7.4-.3 10.9-2.1 12.6-1.9 1.8-4.2 2-6.2 5-.4.6-1.6 2.6-1.8 5.3-.3 5.3 3.8 8.9 4.4 9.4M322.3 161.7A53.9 53.9 0 00342 172M268.1 283.1c.7-1.2 1.8-2.9 3.7-4.3 2.2-1.5 4-1.8 6.7-2.7 4-1.3 3.6-1.9 8.2-3.7 7.6-3.1 8.7-1.8 15-4.7 2.6-1.4 3.5-2.1 6-2.8 3.4-.9 6.4-.7 8.4-.4M291.6 262.6a70.1 70.1 0 00-26.4 18.6M304.6 300.4c-3 1.4-7.7 3.8-13.2 7-7.6 4.6-7.9 5.6-12.3 7.7-8.7 4-16.5 4.3-20.3 4.4-5.5.1-10.2.2-15.6-2.4-4.1-2-6.9-4.8-8.5-6.8M207 324.8a155.5 155.5 0 0017.2 23.2c6.5 7.3 6.5 6.1 13.5 13.8 5.7 6.3 5.2 6.5 13.5 15.8l8.5 9.7 4.6 5.4M306 289.1a79 79 0 0017.7-21c2.2-3.6 2.9-5.6 5.5-10.4l4.4-7.6M258.2 263.4c.8.7 2.1 1.6 3.9 2.3 1 .4 4.3 1.6 10.5.3 3.7-.8 5.3-1.9 12.4-5.2l8.7-3.9"/></g></svg>